<svg xmlns="http://www.w3.org/2000/svg" width="19" height="19" viewBox="0 0 19 19">
    <path fill="none" fill-rule="nonzero" stroke="#000" stroke-width="1.3" d="M17.924 7.377a1.531 1.531 0 0 0-1.228-1.08l-4.03-.61-1.801-3.803A1.508 1.508 0 0 0 9.5 1c-.583 0-1.106.339-1.365.884L6.333 5.688l-4.029.61c-.577.087-1.048.5-1.228 1.08a1.622 1.622 0 0 0 .385 1.624l2.915 2.962-.688 4.18c-.098.6.134 1.194.606 1.552.266.201.578.304.892.304.242 0 .485-.06.71-.184L9.5 15.842l3.604 1.974c.516.283 1.13.237 1.603-.12.472-.358.704-.952.605-1.551l-.688-4.182 2.915-2.96a1.622 1.622 0 0 0 .385-1.626z"/>
</svg>
