<svg xmlns="http://www.w3.org/2000/svg" width="15" height="15" viewBox="0 0 15 15">
    <g fill="none" fill-rule="evenodd">
        <path d="M-2-2h20v20H-2z"/>
        <path fill="#606f7b" d="M10.443 9.232h-.638l-.226-.218A5.223 5.223 0 0 0 10.846 5.6 5.247 5.247 0 1 0 5.6 10.846c1.3 0 2.494-.476 3.414-1.267l.218.226v.638l4.036 4.028 1.203-1.203-4.028-4.036zm-4.843 0A3.627 3.627 0 0 1 1.967 5.6 3.627 3.627 0 0 1 5.6 1.967 3.627 3.627 0 0 1 9.232 5.6 3.627 3.627 0 0 1 5.6 9.232z"/>
    </g>
</svg>
